<svg width="170" height="70" viewBox="0 0 170 70" fill="none" xmlns="http://www.w3.org/2000/svg">
<path d="M0 0H13C15.7614 0 18 2.23858 18 5V18H0V0Z" fill="#D9D9D9"/>
<path d="M24 1C24 0.447716 24.4477 0 25 0H37C39.7614 0 42 2.23858 42 5V17C42 17.5523 41.5523 18 41 18H25C24.4477 18 24 17.5523 24 17V1Z" fill="#D9D9D9"/>
<path d="M0 24H13C15.7614 24 18 26.2386 18 29V42H0V24Z" fill="#D9D9D9"/>
<path opacity="0.1" d="M24.1705 51V24.8182H33.017C35.071 24.8182 36.75 25.1889 38.054 25.9304C39.3665 26.6634 40.3381 27.6562 40.9688 28.9091C41.5994 30.1619 41.9148 31.5597 41.9148 33.1023C41.9148 34.6449 41.5994 36.0469 40.9688 37.3082C40.3466 38.5696 39.3835 39.5753 38.0795 40.3253C36.7756 41.0668 35.1051 41.4375 33.0682 41.4375H26.7273V38.625H32.9659C34.3722 38.625 35.5014 38.3821 36.3537 37.8963C37.206 37.4105 37.8239 36.7543 38.2074 35.9276C38.5994 35.0923 38.7955 34.1506 38.7955 33.1023C38.7955 32.054 38.5994 31.1165 38.2074 30.2898C37.8239 29.4631 37.2017 28.8153 36.3409 28.3466C35.4801 27.8693 34.3381 27.6307 32.9148 27.6307H27.3409V51H24.1705ZM47.022 24.8182H50.8061L59.7038 46.5511H60.0107L68.9084 24.8182H72.6925V51H69.7266V31.108H69.4709L61.2891 51H58.4254L50.2436 31.108H49.9879V51H47.022V24.8182ZM78.5891 51V48.6989L87.2312 39.2386C88.2454 38.1307 89.0806 37.1676 89.7369 36.3494C90.3931 35.5227 90.8789 34.7472 91.1942 34.0227C91.5181 33.2898 91.68 32.5227 91.68 31.7216C91.68 30.8011 91.4585 30.0043 91.0153 29.331C90.5806 28.6577 89.984 28.1378 89.2255 27.7713C88.467 27.4048 87.6147 27.2216 86.6687 27.2216C85.663 27.2216 84.7852 27.4304 84.0352 27.848C83.2937 28.2571 82.7184 28.8324 82.3093 29.5739C81.9087 30.3153 81.7085 31.1847 81.7085 32.1818H78.6914C78.6914 30.6477 79.0451 29.3011 79.7525 28.142C80.4599 26.983 81.4229 26.0795 82.6417 25.4318C83.869 24.7841 85.2454 24.4602 86.771 24.4602C88.305 24.4602 89.6644 24.7841 90.8491 25.4318C92.0337 26.0795 92.9627 26.9531 93.636 28.0526C94.3093 29.152 94.646 30.375 94.646 31.7216C94.646 32.6847 94.4712 33.6264 94.1218 34.5469C93.7809 35.4588 93.1843 36.4773 92.332 37.6023C91.4883 38.7187 90.3164 40.0824 88.8164 41.6932L82.9357 47.983V48.1875H95.1062V51H78.5891ZM108.926 51.358C107 51.358 105.359 50.8338 104.004 49.7855C102.649 48.7287 101.613 47.1989 100.897 45.196C100.181 43.1847 99.8235 40.7557 99.8235 37.9091C99.8235 35.0795 100.181 32.6634 100.897 30.6605C101.622 28.6491 102.662 27.1151 104.017 26.0582C105.38 24.9929 107.017 24.4602 108.926 24.4602C110.835 24.4602 112.467 24.9929 113.822 26.0582C115.186 27.1151 116.225 28.6491 116.941 30.6605C117.666 32.6634 118.028 35.0795 118.028 37.9091C118.028 40.7557 117.67 43.1847 116.954 45.196C116.238 47.1989 115.203 48.7287 113.848 49.7855C112.493 50.8338 110.852 51.358 108.926 51.358ZM108.926 48.5455C110.835 48.5455 112.318 47.625 113.375 45.7841C114.431 43.9432 114.96 41.3182 114.96 37.9091C114.96 35.642 114.717 33.7116 114.231 32.1179C113.754 30.5241 113.064 29.3097 112.16 28.4744C111.265 27.6392 110.187 27.2216 108.926 27.2216C107.034 27.2216 105.555 28.1548 104.49 30.0213C103.424 31.8793 102.892 34.5085 102.892 37.9091C102.892 40.1761 103.13 42.1023 103.608 43.6875C104.085 45.2727 104.771 46.4787 105.666 47.3054C106.569 48.1321 107.656 48.5455 108.926 48.5455ZM131.426 51.358C129.5 51.358 127.859 50.8338 126.504 49.7855C125.149 48.7287 124.113 47.1989 123.397 45.196C122.681 43.1847 122.324 40.7557 122.324 37.9091C122.324 35.0795 122.681 32.6634 123.397 30.6605C124.122 28.6491 125.162 27.1151 126.517 26.0582C127.88 24.9929 129.517 24.4602 131.426 24.4602C133.335 24.4602 134.967 24.9929 136.322 26.0582C137.686 27.1151 138.725 28.6491 139.441 30.6605C140.166 32.6634 140.528 35.0795 140.528 37.9091C140.528 40.7557 140.17 43.1847 139.454 45.196C138.738 47.1989 137.703 48.7287 136.348 49.7855C134.993 50.8338 133.352 51.358 131.426 51.358ZM131.426 48.5455C133.335 48.5455 134.818 47.625 135.875 45.7841C136.931 43.9432 137.46 41.3182 137.46 37.9091C137.46 35.642 137.217 33.7116 136.731 32.1179C136.254 30.5241 135.564 29.3097 134.66 28.4744C133.765 27.6392 132.687 27.2216 131.426 27.2216C129.534 27.2216 128.055 28.1548 126.99 30.0213C125.924 31.8793 125.392 34.5085 125.392 37.9091C125.392 40.1761 125.63 42.1023 126.108 43.6875C126.585 45.2727 127.271 46.4787 128.166 47.3054C129.069 48.1321 130.156 48.5455 131.426 48.5455ZM154.591 24.8182V51H151.42V28.142H151.267L144.875 32.3864V29.1648L151.42 24.8182H154.591Z" fill="black"/>
</svg>
